<mxfile host="app.diagrams.net" agent="Mozilla/5.0 (Macintosh; Intel Mac OS X 10_15_7) AppleWebKit/537.36 (KHTML, like Gecko) Chrome/130.0.0.0 Safari/537.36" version="25.0.1">
  <diagram name="Page-1" id="HBcbqP00_InRanWW-A8C">
    <mxGraphModel dx="1194" dy="789" grid="1" gridSize="10" guides="1" tooltips="1" connect="1" arrows="1" fold="1" page="1" pageScale="1" pageWidth="850" pageHeight="1100" math="0" shadow="0">
      <root>
        <mxCell id="0" />
        <mxCell id="1" parent="0" />
        <mxCell id="NMwxBRUd4ogdv54OnRxo-1" value="" style="rounded=0;whiteSpace=wrap;html=1;fillColor=none;" parent="1" vertex="1">
          <mxGeometry x="180" y="80" width="650" height="490" as="geometry" />
        </mxCell>
        <mxCell id="NMwxBRUd4ogdv54OnRxo-2" value="User" style="shape=umlActor;verticalLabelPosition=bottom;verticalAlign=top;html=1;outlineConnect=0;" parent="1" vertex="1">
          <mxGeometry x="50" y="130" width="30" height="60" as="geometry" />
        </mxCell>
        <mxCell id="NMwxBRUd4ogdv54OnRxo-9" style="edgeStyle=orthogonalEdgeStyle;rounded=0;orthogonalLoop=1;jettySize=auto;html=1;entryX=0;entryY=0.5;entryDx=0;entryDy=0;endArrow=classic;endFill=1;dashed=1;" parent="1" source="NMwxBRUd4ogdv54OnRxo-3" target="NMwxBRUd4ogdv54OnRxo-5" edge="1">
          <mxGeometry relative="1" as="geometry" />
        </mxCell>
        <mxCell id="NMwxBRUd4ogdv54OnRxo-17" value="&amp;lt;&amp;lt;extends&amp;gt;&amp;gt;" style="edgeLabel;html=1;align=center;verticalAlign=middle;resizable=0;points=[];" parent="NMwxBRUd4ogdv54OnRxo-9" connectable="0" vertex="1">
          <mxGeometry x="-0.1111" y="-2" relative="1" as="geometry">
            <mxPoint y="1" as="offset" />
          </mxGeometry>
        </mxCell>
        <mxCell id="NMwxBRUd4ogdv54OnRxo-3" value="Title Screen" style="ellipse;whiteSpace=wrap;html=1;" parent="1" vertex="1">
          <mxGeometry x="250" y="120" width="120" height="80" as="geometry" />
        </mxCell>
        <mxCell id="NMwxBRUd4ogdv54OnRxo-5" value="Play Game" style="ellipse;whiteSpace=wrap;html=1;" parent="1" vertex="1">
          <mxGeometry x="480" y="120" width="120" height="80" as="geometry" />
        </mxCell>
        <mxCell id="NMwxBRUd4ogdv54OnRxo-6" value="Quit" style="ellipse;whiteSpace=wrap;html=1;" parent="1" vertex="1">
          <mxGeometry x="480" y="450" width="120" height="80" as="geometry" />
        </mxCell>
        <mxCell id="NMwxBRUd4ogdv54OnRxo-19" value="&amp;lt;&amp;lt;includes&amp;gt;&amp;gt;" style="edgeStyle=orthogonalEdgeStyle;rounded=0;orthogonalLoop=1;jettySize=auto;html=1;entryX=0;entryY=0.5;entryDx=0;entryDy=0;dashed=1;" parent="1" source="NMwxBRUd4ogdv54OnRxo-7" target="NMwxBRUd4ogdv54OnRxo-8" edge="1">
          <mxGeometry relative="1" as="geometry" />
        </mxCell>
        <mxCell id="NMwxBRUd4ogdv54OnRxo-7" value="Settings" style="ellipse;whiteSpace=wrap;html=1;" parent="1" vertex="1">
          <mxGeometry x="480" y="270" width="120" height="80" as="geometry" />
        </mxCell>
        <mxCell id="NMwxBRUd4ogdv54OnRxo-8" value="Settings Menu" style="ellipse;whiteSpace=wrap;html=1;" parent="1" vertex="1">
          <mxGeometry x="700" y="270" width="120" height="80" as="geometry" />
        </mxCell>
        <mxCell id="NMwxBRUd4ogdv54OnRxo-13" value="" style="endArrow=classic;html=1;rounded=0;entryX=0;entryY=0.5;entryDx=0;entryDy=0;dashed=1;" parent="1" target="NMwxBRUd4ogdv54OnRxo-7" edge="1">
          <mxGeometry width="50" height="50" relative="1" as="geometry">
            <mxPoint x="370" y="160" as="sourcePoint" />
            <mxPoint x="420" y="210" as="targetPoint" />
          </mxGeometry>
        </mxCell>
        <mxCell id="NMwxBRUd4ogdv54OnRxo-16" value="&amp;lt;&amp;lt;extends&amp;gt;&amp;gt;" style="edgeLabel;html=1;align=center;verticalAlign=middle;resizable=0;points=[];" parent="NMwxBRUd4ogdv54OnRxo-13" connectable="0" vertex="1">
          <mxGeometry x="-0.0049" relative="1" as="geometry">
            <mxPoint as="offset" />
          </mxGeometry>
        </mxCell>
        <mxCell id="NMwxBRUd4ogdv54OnRxo-14" value="" style="endArrow=classic;html=1;rounded=0;entryX=0;entryY=0.5;entryDx=0;entryDy=0;dashed=1;" parent="1" target="NMwxBRUd4ogdv54OnRxo-6" edge="1">
          <mxGeometry width="50" height="50" relative="1" as="geometry">
            <mxPoint x="370" y="160" as="sourcePoint" />
            <mxPoint x="420" y="210" as="targetPoint" />
          </mxGeometry>
        </mxCell>
        <mxCell id="NMwxBRUd4ogdv54OnRxo-15" value="&amp;lt;&amp;lt;extends" style="edgeLabel;html=1;align=center;verticalAlign=middle;resizable=0;points=[];" parent="NMwxBRUd4ogdv54OnRxo-14" connectable="0" vertex="1">
          <mxGeometry x="0.0879" relative="1" as="geometry">
            <mxPoint as="offset" />
          </mxGeometry>
        </mxCell>
        <mxCell id="NMwxBRUd4ogdv54OnRxo-21" value="Title Screen Use Case" style="text;html=1;align=center;verticalAlign=middle;whiteSpace=wrap;rounded=0;" parent="1" vertex="1">
          <mxGeometry x="180" y="80" width="130" height="30" as="geometry" />
        </mxCell>
        <mxCell id="NMwxBRUd4ogdv54OnRxo-22" value="" style="rounded=0;whiteSpace=wrap;html=1;fillColor=none;" parent="1" vertex="1">
          <mxGeometry x="160" y="710" width="630" height="480" as="geometry" />
        </mxCell>
        <mxCell id="NMwxBRUd4ogdv54OnRxo-23" value="Pause Menu Use Case" style="text;html=1;align=center;verticalAlign=middle;whiteSpace=wrap;rounded=0;" parent="1" vertex="1">
          <mxGeometry x="170" y="720" width="135" height="30" as="geometry" />
        </mxCell>
        <mxCell id="5TxDoVYh6oekgG7n0y4o-3" style="edgeStyle=orthogonalEdgeStyle;rounded=0;orthogonalLoop=1;jettySize=auto;html=1;exitX=0.5;exitY=0.5;exitDx=0;exitDy=0;exitPerimeter=0;entryX=0;entryY=0.5;entryDx=0;entryDy=0;" parent="1" source="NMwxBRUd4ogdv54OnRxo-25" target="NMwxBRUd4ogdv54OnRxo-28" edge="1">
          <mxGeometry relative="1" as="geometry" />
        </mxCell>
        <mxCell id="NMwxBRUd4ogdv54OnRxo-25" value="User" style="shape=umlActor;verticalLabelPosition=bottom;verticalAlign=top;html=1;outlineConnect=0;" parent="1" vertex="1">
          <mxGeometry x="80" y="890" width="30" height="60" as="geometry" />
        </mxCell>
        <mxCell id="NMwxBRUd4ogdv54OnRxo-33" style="edgeStyle=orthogonalEdgeStyle;rounded=0;orthogonalLoop=1;jettySize=auto;html=1;entryX=0;entryY=0.5;entryDx=0;entryDy=0;dashed=1;" parent="1" source="NMwxBRUd4ogdv54OnRxo-28" target="NMwxBRUd4ogdv54OnRxo-31" edge="1">
          <mxGeometry relative="1" as="geometry" />
        </mxCell>
        <mxCell id="NMwxBRUd4ogdv54OnRxo-56" value="&amp;lt;&amp;lt;extends&amp;gt;&amp;gt;" style="edgeLabel;html=1;align=center;verticalAlign=middle;resizable=0;points=[];" parent="NMwxBRUd4ogdv54OnRxo-33" connectable="0" vertex="1">
          <mxGeometry x="-0.0133" relative="1" as="geometry">
            <mxPoint as="offset" />
          </mxGeometry>
        </mxCell>
        <mxCell id="NMwxBRUd4ogdv54OnRxo-28" value="Pause Menu" style="ellipse;whiteSpace=wrap;html=1;" parent="1" vertex="1">
          <mxGeometry x="185" y="880" width="120" height="80" as="geometry" />
        </mxCell>
        <mxCell id="tEcNUYaOv-vdNbmibR6V-19" style="edgeStyle=orthogonalEdgeStyle;rounded=0;orthogonalLoop=1;jettySize=auto;html=1;entryX=0;entryY=0.5;entryDx=0;entryDy=0;dashed=1;" edge="1" parent="1" source="NMwxBRUd4ogdv54OnRxo-30" target="tEcNUYaOv-vdNbmibR6V-18">
          <mxGeometry relative="1" as="geometry" />
        </mxCell>
        <mxCell id="tEcNUYaOv-vdNbmibR6V-20" value="&amp;lt;&amp;lt;includes&amp;gt;&amp;gt;" style="edgeLabel;html=1;align=center;verticalAlign=middle;resizable=0;points=[];" vertex="1" connectable="0" parent="tEcNUYaOv-vdNbmibR6V-19">
          <mxGeometry x="-0.06" y="-3" relative="1" as="geometry">
            <mxPoint as="offset" />
          </mxGeometry>
        </mxCell>
        <mxCell id="NMwxBRUd4ogdv54OnRxo-30" value="Save &amp;amp; Quit" style="ellipse;whiteSpace=wrap;html=1;" parent="1" vertex="1">
          <mxGeometry x="440" y="750" width="120" height="80" as="geometry" />
        </mxCell>
        <mxCell id="tEcNUYaOv-vdNbmibR6V-4" style="edgeStyle=orthogonalEdgeStyle;rounded=0;orthogonalLoop=1;jettySize=auto;html=1;entryX=0;entryY=0.5;entryDx=0;entryDy=0;dashed=1;" edge="1" parent="1" source="NMwxBRUd4ogdv54OnRxo-31" target="tEcNUYaOv-vdNbmibR6V-3">
          <mxGeometry relative="1" as="geometry" />
        </mxCell>
        <mxCell id="tEcNUYaOv-vdNbmibR6V-5" value="&amp;lt;&amp;lt;includes&amp;gt;&amp;gt;" style="edgeLabel;html=1;align=center;verticalAlign=middle;resizable=0;points=[];" vertex="1" connectable="0" parent="tEcNUYaOv-vdNbmibR6V-4">
          <mxGeometry x="-0.0857" y="-1" relative="1" as="geometry">
            <mxPoint as="offset" />
          </mxGeometry>
        </mxCell>
        <mxCell id="NMwxBRUd4ogdv54OnRxo-31" value="Settings Menu" style="ellipse;whiteSpace=wrap;html=1;" parent="1" vertex="1">
          <mxGeometry x="440" y="880" width="120" height="80" as="geometry" />
        </mxCell>
        <mxCell id="tEcNUYaOv-vdNbmibR6V-16" style="edgeStyle=orthogonalEdgeStyle;rounded=0;orthogonalLoop=1;jettySize=auto;html=1;entryX=0;entryY=0.5;entryDx=0;entryDy=0;dashed=1;" edge="1" parent="1" source="NMwxBRUd4ogdv54OnRxo-32" target="tEcNUYaOv-vdNbmibR6V-14">
          <mxGeometry relative="1" as="geometry" />
        </mxCell>
        <mxCell id="tEcNUYaOv-vdNbmibR6V-17" value="&amp;lt;&amp;lt;includes&amp;gt;&amp;gt;" style="edgeLabel;html=1;align=center;verticalAlign=middle;resizable=0;points=[];" vertex="1" connectable="0" parent="tEcNUYaOv-vdNbmibR6V-16">
          <mxGeometry x="-0.2" y="-1" relative="1" as="geometry">
            <mxPoint x="4" y="-1" as="offset" />
          </mxGeometry>
        </mxCell>
        <mxCell id="NMwxBRUd4ogdv54OnRxo-32" value="Continue" style="ellipse;whiteSpace=wrap;html=1;" parent="1" vertex="1">
          <mxGeometry x="440" y="1010" width="120" height="80" as="geometry" />
        </mxCell>
        <mxCell id="NMwxBRUd4ogdv54OnRxo-34" value="" style="endArrow=classic;html=1;rounded=0;entryX=0;entryY=0.5;entryDx=0;entryDy=0;dashed=1;exitX=1;exitY=0;exitDx=0;exitDy=0;" parent="1" source="NMwxBRUd4ogdv54OnRxo-28" target="NMwxBRUd4ogdv54OnRxo-30" edge="1">
          <mxGeometry width="50" height="50" relative="1" as="geometry">
            <mxPoint x="340" y="920" as="sourcePoint" />
            <mxPoint x="390" y="870" as="targetPoint" />
          </mxGeometry>
        </mxCell>
        <mxCell id="NMwxBRUd4ogdv54OnRxo-55" value="&amp;lt;&amp;lt;extends&amp;gt;&amp;gt;" style="edgeLabel;html=1;align=center;verticalAlign=middle;resizable=0;points=[];" parent="NMwxBRUd4ogdv54OnRxo-34" connectable="0" vertex="1">
          <mxGeometry x="0.1611" y="3" relative="1" as="geometry">
            <mxPoint y="1" as="offset" />
          </mxGeometry>
        </mxCell>
        <mxCell id="NMwxBRUd4ogdv54OnRxo-35" value="" style="endArrow=classic;html=1;rounded=0;entryX=0;entryY=0.5;entryDx=0;entryDy=0;dashed=1;exitX=1;exitY=1;exitDx=0;exitDy=0;" parent="1" source="NMwxBRUd4ogdv54OnRxo-28" target="NMwxBRUd4ogdv54OnRxo-32" edge="1">
          <mxGeometry width="50" height="50" relative="1" as="geometry">
            <mxPoint x="340" y="920" as="sourcePoint" />
            <mxPoint x="390" y="870" as="targetPoint" />
          </mxGeometry>
        </mxCell>
        <mxCell id="NMwxBRUd4ogdv54OnRxo-57" value="&amp;lt;&amp;lt;extends&amp;gt;&amp;gt;" style="edgeLabel;html=1;align=center;verticalAlign=middle;resizable=0;points=[];" parent="NMwxBRUd4ogdv54OnRxo-35" connectable="0" vertex="1">
          <mxGeometry x="-0.0877" y="-1" relative="1" as="geometry">
            <mxPoint y="1" as="offset" />
          </mxGeometry>
        </mxCell>
        <mxCell id="5TxDoVYh6oekgG7n0y4o-5" style="edgeStyle=orthogonalEdgeStyle;rounded=0;orthogonalLoop=1;jettySize=auto;html=1;exitX=0.5;exitY=0.5;exitDx=0;exitDy=0;exitPerimeter=0;" parent="1" source="NMwxBRUd4ogdv54OnRxo-36" target="NMwxBRUd4ogdv54OnRxo-50" edge="1">
          <mxGeometry relative="1" as="geometry" />
        </mxCell>
        <mxCell id="NMwxBRUd4ogdv54OnRxo-36" value="User" style="shape=umlActor;verticalLabelPosition=bottom;verticalAlign=top;html=1;outlineConnect=0;" parent="1" vertex="1">
          <mxGeometry x="70" y="1420" width="30" height="60" as="geometry" />
        </mxCell>
        <mxCell id="NMwxBRUd4ogdv54OnRxo-37" value="" style="rounded=0;whiteSpace=wrap;html=1;fillColor=none;" parent="1" vertex="1">
          <mxGeometry x="200" y="1360" width="630" height="490" as="geometry" />
        </mxCell>
        <mxCell id="NMwxBRUd4ogdv54OnRxo-41" style="edgeStyle=orthogonalEdgeStyle;rounded=0;orthogonalLoop=1;jettySize=auto;html=1;entryX=0;entryY=0.5;entryDx=0;entryDy=0;dashed=1;" parent="1" source="NMwxBRUd4ogdv54OnRxo-38" target="NMwxBRUd4ogdv54OnRxo-40" edge="1">
          <mxGeometry relative="1" as="geometry" />
        </mxCell>
        <mxCell id="NMwxBRUd4ogdv54OnRxo-44" value="&amp;lt;&amp;lt;includes&amp;gt;&amp;gt;" style="edgeLabel;html=1;align=center;verticalAlign=middle;resizable=0;points=[];" parent="NMwxBRUd4ogdv54OnRxo-41" connectable="0" vertex="1">
          <mxGeometry x="-0.0444" y="-2" relative="1" as="geometry">
            <mxPoint as="offset" />
          </mxGeometry>
        </mxCell>
        <mxCell id="NMwxBRUd4ogdv54OnRxo-38" value="Continue Game" style="ellipse;whiteSpace=wrap;html=1;" parent="1" vertex="1">
          <mxGeometry x="440" y="1550" width="120" height="80" as="geometry" />
        </mxCell>
        <mxCell id="NMwxBRUd4ogdv54OnRxo-40" value="Save Data" style="ellipse;whiteSpace=wrap;html=1;" parent="1" vertex="1">
          <mxGeometry x="670" y="1550" width="120" height="80" as="geometry" />
        </mxCell>
        <mxCell id="NMwxBRUd4ogdv54OnRxo-42" value="Logical Gate Levels" style="ellipse;whiteSpace=wrap;html=1;" parent="1" vertex="1">
          <mxGeometry x="670" y="1410" width="120" height="80" as="geometry" />
        </mxCell>
        <mxCell id="NMwxBRUd4ogdv54OnRxo-46" style="edgeStyle=orthogonalEdgeStyle;rounded=0;orthogonalLoop=1;jettySize=auto;html=1;exitX=0.5;exitY=1;exitDx=0;exitDy=0;" parent="1" source="NMwxBRUd4ogdv54OnRxo-37" target="NMwxBRUd4ogdv54OnRxo-37" edge="1">
          <mxGeometry relative="1" as="geometry" />
        </mxCell>
        <mxCell id="NMwxBRUd4ogdv54OnRxo-48" value="Play Game Use Case" style="text;html=1;align=center;verticalAlign=middle;whiteSpace=wrap;rounded=0;" parent="1" vertex="1">
          <mxGeometry x="210" y="1370" width="120" height="30" as="geometry" />
        </mxCell>
        <mxCell id="NMwxBRUd4ogdv54OnRxo-49" value="New Game" style="ellipse;whiteSpace=wrap;html=1;" parent="1" vertex="1">
          <mxGeometry x="440" y="1410" width="120" height="80" as="geometry" />
        </mxCell>
        <mxCell id="NMwxBRUd4ogdv54OnRxo-50" value="Play Game" style="ellipse;whiteSpace=wrap;html=1;" parent="1" vertex="1">
          <mxGeometry x="230" y="1410" width="120" height="80" as="geometry" />
        </mxCell>
        <mxCell id="5TxDoVYh6oekgG7n0y4o-1" value="" style="endArrow=classic;html=1;rounded=0;entryX=0;entryY=0.5;entryDx=0;entryDy=0;" parent="1" source="NMwxBRUd4ogdv54OnRxo-2" target="NMwxBRUd4ogdv54OnRxo-3" edge="1">
          <mxGeometry width="50" height="50" relative="1" as="geometry">
            <mxPoint x="400" y="420" as="sourcePoint" />
            <mxPoint x="450" y="370" as="targetPoint" />
          </mxGeometry>
        </mxCell>
        <mxCell id="5TxDoVYh6oekgG7n0y4o-8" value="&amp;lt;&amp;lt;extends&amp;gt;&amp;gt;" style="endArrow=open;endSize=12;dashed=1;html=1;rounded=0;entryX=0;entryY=0.5;entryDx=0;entryDy=0;" parent="1" target="NMwxBRUd4ogdv54OnRxo-49" edge="1">
          <mxGeometry width="160" relative="1" as="geometry">
            <mxPoint x="350" y="1450" as="sourcePoint" />
            <mxPoint x="510" y="1449.5" as="targetPoint" />
            <mxPoint as="offset" />
          </mxGeometry>
        </mxCell>
        <mxCell id="5TxDoVYh6oekgG7n0y4o-9" value="&amp;lt;&amp;lt;extends&amp;gt;&amp;gt;" style="endArrow=open;endSize=12;dashed=1;html=1;rounded=0;entryX=0;entryY=0.5;entryDx=0;entryDy=0;exitX=1;exitY=1;exitDx=0;exitDy=0;" parent="1" source="NMwxBRUd4ogdv54OnRxo-50" target="NMwxBRUd4ogdv54OnRxo-38" edge="1">
          <mxGeometry width="160" relative="1" as="geometry">
            <mxPoint x="360" y="1460" as="sourcePoint" />
            <mxPoint x="450" y="1460" as="targetPoint" />
            <mxPoint as="offset" />
          </mxGeometry>
        </mxCell>
        <mxCell id="5TxDoVYh6oekgG7n0y4o-10" style="edgeStyle=orthogonalEdgeStyle;rounded=0;orthogonalLoop=1;jettySize=auto;html=1;entryX=0.5;entryY=1;entryDx=0;entryDy=0;dashed=1;exitX=0.5;exitY=0;exitDx=0;exitDy=0;" parent="1" source="NMwxBRUd4ogdv54OnRxo-40" target="NMwxBRUd4ogdv54OnRxo-42" edge="1">
          <mxGeometry relative="1" as="geometry">
            <mxPoint x="600" y="1680" as="sourcePoint" />
            <mxPoint x="710" y="1680" as="targetPoint" />
          </mxGeometry>
        </mxCell>
        <mxCell id="5TxDoVYh6oekgG7n0y4o-11" value="&amp;lt;&amp;lt;includes&amp;gt;&amp;gt;" style="edgeLabel;html=1;align=center;verticalAlign=middle;resizable=0;points=[];" parent="5TxDoVYh6oekgG7n0y4o-10" connectable="0" vertex="1">
          <mxGeometry x="-0.0444" y="-2" relative="1" as="geometry">
            <mxPoint as="offset" />
          </mxGeometry>
        </mxCell>
        <mxCell id="5TxDoVYh6oekgG7n0y4o-12" style="edgeStyle=orthogonalEdgeStyle;rounded=0;orthogonalLoop=1;jettySize=auto;html=1;entryX=0;entryY=0.5;entryDx=0;entryDy=0;dashed=1;" parent="1" edge="1">
          <mxGeometry relative="1" as="geometry">
            <mxPoint x="560" y="1449.5" as="sourcePoint" />
            <mxPoint x="670" y="1449.5" as="targetPoint" />
          </mxGeometry>
        </mxCell>
        <mxCell id="5TxDoVYh6oekgG7n0y4o-13" value="&amp;lt;&amp;lt;includes&amp;gt;&amp;gt;" style="edgeLabel;html=1;align=center;verticalAlign=middle;resizable=0;points=[];" parent="5TxDoVYh6oekgG7n0y4o-12" connectable="0" vertex="1">
          <mxGeometry x="-0.0444" y="-2" relative="1" as="geometry">
            <mxPoint as="offset" />
          </mxGeometry>
        </mxCell>
        <mxCell id="tEcNUYaOv-vdNbmibR6V-3" value="Sound Toggle&lt;div&gt;Options&lt;/div&gt;" style="ellipse;whiteSpace=wrap;html=1;" vertex="1" parent="1">
          <mxGeometry x="660" y="880" width="120" height="80" as="geometry" />
        </mxCell>
        <mxCell id="tEcNUYaOv-vdNbmibR6V-7" value="Back" style="ellipse;whiteSpace=wrap;html=1;" vertex="1" parent="1">
          <mxGeometry x="440" y="1680" width="120" height="80" as="geometry" />
        </mxCell>
        <mxCell id="tEcNUYaOv-vdNbmibR6V-9" value="&amp;lt;&amp;lt;extends&amp;gt;&amp;gt;" style="endArrow=open;endSize=12;dashed=1;html=1;rounded=0;entryX=0.033;entryY=0.288;entryDx=0;entryDy=0;exitX=1;exitY=1;exitDx=0;exitDy=0;entryPerimeter=0;" edge="1" parent="1" target="tEcNUYaOv-vdNbmibR6V-7">
          <mxGeometry width="160" relative="1" as="geometry">
            <mxPoint x="290" y="1490" as="sourcePoint" />
            <mxPoint x="398" y="1602" as="targetPoint" />
            <mxPoint as="offset" />
          </mxGeometry>
        </mxCell>
        <mxCell id="tEcNUYaOv-vdNbmibR6V-10" value="Title Screen" style="ellipse;whiteSpace=wrap;html=1;" vertex="1" parent="1">
          <mxGeometry x="660" y="1690" width="120" height="80" as="geometry" />
        </mxCell>
        <mxCell id="tEcNUYaOv-vdNbmibR6V-11" style="edgeStyle=orthogonalEdgeStyle;rounded=0;orthogonalLoop=1;jettySize=auto;html=1;entryX=0.017;entryY=0.375;entryDx=0;entryDy=0;entryPerimeter=0;dashed=1;" edge="1" parent="1" source="tEcNUYaOv-vdNbmibR6V-7" target="tEcNUYaOv-vdNbmibR6V-10">
          <mxGeometry relative="1" as="geometry" />
        </mxCell>
        <mxCell id="tEcNUYaOv-vdNbmibR6V-12" value="&amp;lt;&amp;lt;includes&amp;gt;&amp;gt;" style="edgeLabel;html=1;align=center;verticalAlign=middle;resizable=0;points=[];" vertex="1" connectable="0" parent="tEcNUYaOv-vdNbmibR6V-11">
          <mxGeometry x="-0.02" y="-1" relative="1" as="geometry">
            <mxPoint as="offset" />
          </mxGeometry>
        </mxCell>
        <mxCell id="tEcNUYaOv-vdNbmibR6V-14" value="Logic Gate Levels" style="ellipse;whiteSpace=wrap;html=1;" vertex="1" parent="1">
          <mxGeometry x="660" y="1010" width="120" height="80" as="geometry" />
        </mxCell>
        <mxCell id="tEcNUYaOv-vdNbmibR6V-18" value="Save Data" style="ellipse;whiteSpace=wrap;html=1;" vertex="1" parent="1">
          <mxGeometry x="660" y="750" width="120" height="80" as="geometry" />
        </mxCell>
      </root>
    </mxGraphModel>
  </diagram>
</mxfile>
